<?xml version="1.0" encoding="utf-8"?>
<!-- Generator: Adobe Illustrator 25.2.3, SVG Export Plug-In . SVG Version: 6.00 Build 0)  -->
<svg version="1.1" id="Camada_1" xmlns="http://www.w3.org/2000/svg" xmlns:xlink="http://www.w3.org/1999/xlink" x="0px" y="0px"
	 viewBox="0 0 702 704" style="enable-background:new 0 0 702 704;" xml:space="preserve">
<style type="text/css">
	.st0{fill:#FFFFFF;}
</style>
<g>
	<path class="st0" d="M350.1,247.4c-109.9,0-219.8,0-329.7,0c-12.7,0-12.8,0-8-11.9c14.3-36,28.7-72,43.1-108
		c5.5-13.8,10.9-17.4,25.7-17.4c14.3-0.1,28.6,0.2,42.9-0.1c5.6-0.1,7.8,1.2,7.5,7.2c-0.5,9.1-0.3,18.3-0.1,27.5
		c0.6,33.9,26.6,61.4,60.5,61.6c106.2,0.5,212.5,0.5,318.7,0c33.9-0.2,59.7-27.7,60.4-61.7c0.2-8.1,0.5-16.2-0.1-24.2
		c-0.6-7.7,1-11.1,9.9-10.5c13.5,0.9,27.1,0.2,40.6,0.2c14.4,0.1,19.9,3.5,25.1,16.6c14.9,37,29.5,74.1,44.7,110.9
		c3.6,8.8,1.6,10.1-7.1,10.1C572.8,247.3,461.5,247.4,350.1,247.4z"/>
	<path class="st0" d="M149.1,307.1c0-18.7,0-18.7,19.2-18.7c26.4,0,52.8,0.2,79.1-0.2c7-0.1,10,1.6,9.3,9.1
		c-0.6,5.8,0,11.7-0.1,17.6c-0.5,32.3-23.6,56.4-53.8,56.3c-30.2,0-53.2-24.2-53.7-56.5C149.1,312.2,149.1,309.7,149.1,307.1z"/>
	<path class="st0" d="M499.6,288.4c15,0,30,0.3,45.1-0.1c6.4-0.2,9.5,1.2,8.9,8.4c-0.6,7.6,0.2,15.4-0.4,23.1
		c-2.1,29.6-25.5,51.8-54,51.5c-28.6-0.3-51.4-22.9-53.2-52.5c-1.7-30.3-1.7-30.3,28.3-30.3C482.7,288.4,491.2,288.4,499.6,288.4z"
		/>
	<path class="st0" d="M55,288.4c15,0,30,0.3,44.9-0.1c6.3-0.2,8.4,1.9,8.1,8.1c-0.5,7.6,0.1,15.4-0.3,23
		c-1.3,29.2-24.7,51.8-53.3,51.8c-28.1,0-51.4-22.2-53.3-50.8c-2.2-32-2.2-32,29.8-32C38.9,288.4,47,288.4,55,288.4z"/>
	<path class="st0" d="M297.8,308.9c0-20.5,0-20.5,20.6-20.5c25.6,0,51.2,0.3,76.7-0.2c7.9-0.2,10.3,2.4,9.6,9.9
		c-0.6,6.2,0,12.4-0.2,18.6c-0.8,30.9-23.5,54.2-52.9,54.5c-29.8,0.3-53.1-23.3-53.8-54.7C297.8,314,297.9,311.5,297.8,308.9z"/>
	<path class="st0" d="M648,288.4c15.3,0,30.7,0,46,0c3.7,0,7.7-0.5,7.5,5.2c-0.5,13.8,1.8,27.8-3,41.3c-8.5,23.8-32.8,39.3-56.5,36
		c-26.7-3.7-45.9-24.3-47.3-50.9c-1.7-31.6-1.7-31.6,29.2-31.6C631.9,288.4,640,288.4,648,288.4z"/>
	<path class="st0" d="M651.9,412c-28.3,1.2-52.5-8.6-72-29c-5.4-5.6-7.6-4.5-12.5,0.4c-38.5,38.7-97,38.7-135.5,0
		c-4.9-4.9-7-5.9-12.5-0.4c-38.9,39.3-97.2,39.2-136.3-0.1c-4.6-4.6-6.6-5.5-11.7-0.3c-39.8,39.9-96.8,39.8-137.1-0.1
		c-4.3-4.3-6.4-5-10.9-0.2c-19.7,20.8-44.1,30.9-72.8,29.6c-7-0.3-8.7,1.7-8.7,8.4C42,506.9,42,593.3,42,679.8c0,0.7,0,1.5,0,2.2
		c1,13.7,8.9,21.4,22.6,21.6c11.7,0.2,23.5-0.6,35.2,0.2c9.1,0.6,11.5-2.1,11.4-11.3c-0.4-70-0.3-140-0.2-209.9
		c0-19.4,6.9-26.2,26.5-26.2c50.6,0,101.1,0,151.7,0c21,0,27.5,6.5,27.5,27.5c0,69.6,0.2,139.2-0.2,208.8
		c-0.1,9.5,2.7,11.3,11.6,11.2c51.3-0.4,102.6-0.2,153.9-0.2c51.3,0,102.6,0,153.9,0c16.5,0,24.7-7.5,24.7-23.9
		c0.2-86.5,0-172.9,0.2-259.4C660.7,413.4,658.7,411.7,651.9,412z M591.5,597.7c-0.1,15.8-7.8,23.3-23.8,23.4c-26.3,0.2-52.7,0-79,0
		c-26,0-52,0.1-77.9,0c-17.4-0.1-24.9-7.4-24.9-24.5c-0.1-38.8-0.1-77.6,0-116.4c0.1-16.5,7.6-23.9,24.3-24
		c52.3-0.1,104.6-0.1,157,0c16.7,0,24.3,7.5,24.3,23.9C591.6,519.4,591.6,558.6,591.5,597.7z"/>
	<path class="st0" d="M529.6,25.4c0-18.3-7-25.3-25.2-25.3c-102.1,0-204.3,0-306.4,0c-18.2,0-25.1,7-25.2,25.3
		c0,37.7,0,75.4,0,113.1c0,19.7,6.7,26.4,26.3,26.4c50.5,0,101.1,0,151.6,0c51.3,0,102.5,0,153.8,0c18.1,0,25.1-7.1,25.2-25.3
		C529.7,101.6,529.7,63.5,529.6,25.4z M469.3,103.1c-5.8,0.6-11.7,0.2-17.5,0.2c-69.1,0-138.3,0-207.4,0c-3.3,0-6.6,0.2-9.9-0.1
		c-12-1-20.3-9.4-20.5-20.3c-0.2-11.4,8.3-20.4,20.9-21c12.1-0.5,24.1-0.1,36.2-0.1c26.7,0,53.4,0,80.1,0c36.2,0,72.4,0,108.7,0
		c3.3,0,6.6-0.2,9.9,0.2c11.2,1.5,19,10.2,18.9,20.7C488.4,93.3,480.6,101.9,469.3,103.1z"/>
	<path class="st0" d="M276,506c0-7.8-3-8.9-9.6-8.8c-35.1,0.3-70.3,0.3-105.4,0c-7.2-0.1-9.4,1.9-9.3,9.2c0.4,31.5,0.2,63,0.2,94.4
		c0,31.5,0.2,63-0.2,94.4c-0.1,6.7,1.7,8.7,8.5,8.6c35.9-0.3,71.7-0.3,107.6,0c6,0,8.2-1.3,8.2-7.8C275.8,632.6,275.7,569.3,276,506
		z M247.7,603c-1.1,10-9.1,17.4-18.9,18c-9.8,0.6-18.9-5.6-20.8-15.6c-2.3-12.2-2.2-24.7-0.1-37c1.7-9.9,11.2-16.6,20.6-16.1
		c10,0.5,18.4,8.5,19.3,19c0.5,5.1,0.1,10.2,0.1,15.3c0,0-0.1,0-0.1,0C247.9,592.1,248.3,597.6,247.7,603z"/>
	<path class="st0" d="M487.9,580.2c-17.9,0-35.8-0.2-53.8,0.1c-5.6,0.1-7.7-1.6-7.6-7.4c0.3-22.7,0.3-45.4,0-68
		c-0.1-5.6,1.5-7.7,7.4-7.6c36.6,0.2,73.1,0.2,109.7,0c5.2,0,7.1,1.6,7,6.9c-0.2,23-0.3,46.1,0,69.1c0.1,6.3-2.8,7.1-8,7
		C524.5,580,506.2,580.2,487.9,580.2z"/>
</g>
</svg>
