<?xml version="1.0" encoding="utf-8"?>
<!-- Generator: Adobe Illustrator 25.2.1, SVG Export Plug-In . SVG Version: 6.00 Build 0)  -->
<svg version="1.1" id="Camada_1" xmlns="http://www.w3.org/2000/svg" xmlns:xlink="http://www.w3.org/1999/xlink" x="0px" y="0px"
	 viewBox="0 0 36.4 45" style="enable-background:new 0 0 36.4 45;" xml:space="preserve">
<style type="text/css">
	.st0{fill:#1138F7;}
</style>
<path class="st0" d="M8.4,16.9V45C3.8,45,0,41.3,0,36.6V17.4C0,7.8,7.8,0,17.4,0v8.4H17C12.2,8.4,8.4,12.2,8.4,16.9z"/>
<path class="st0" d="M19,26.2c0,4.6,3.8,8.4,8.4,8.4H28V45c4.6,0,8.4-3.7,8.4-8.4V17.4C36.4,7.8,28.6,0,19,0v8.4h0.5
	c4.7,0,8.6,3.8,8.6,8.5v9.3H19z"/>
<path class="st0" d="M21,20.8c2,0,3.6-1.6,3.6-3.6c0-2-1.6-3.6-3.6-3.6c-2,0-3.6,1.6-3.6,3.6C17.4,19.2,19,20.8,21,20.8z"/>
</svg>
