<?xml version="1.0" encoding="utf-8"?>
<!-- Generator: Adobe Illustrator 25.2.3, SVG Export Plug-In . SVG Version: 6.00 Build 0)  -->
<svg version="1.1" id="Camada_1" xmlns="http://www.w3.org/2000/svg" xmlns:xlink="http://www.w3.org/1999/xlink" x="0px" y="0px"
	 viewBox="0 0 702 710" style="enable-background:new 0 0 702 710;" xml:space="preserve">
<style type="text/css">
	.st0{fill:#FFFFFF;}
</style>
<g>
	<path class="st0" d="M35.6,466.7c0-4.5,0-7.4,0-10.3c0-80.8-0.2-161.6,0-242.4c0.3-101.4,67-183.4,166.1-204.6
		C307-13.2,416.9,56.8,441.2,161.9c4.1,17.9,6.2,35.9,6.2,54.3c-0.1,79.3,0,158.7,0,238c0,3.6,0,7.3,0,12.4
		c-17-5.7-33.1-11.1-49.3-16.5c-15.9-5.4-31.7-11.2-47.8-15.9c-7-2.1-9.2-5.5-8.8-12.4c0.5-8.7,0.4-17.6,0.1-26.3
		c-0.8-20.9-0.1-40.8,12.1-59.6c8.8-13.5,10.7-30.1,10.8-46.4c0.1-31.4-0.1-62.9,0.2-94.3c0.1-11.4-4.9-18.6-15.2-22.8
		c-45.1-18-90.1-36.1-135.1-54.2c-9.4-3.8-17.6-2.3-25.4,4.3c-20.2,17.5-40.4,34.8-60.9,51.9c-7,5.9-10,12.8-9.9,21.9
		c0.3,30,0.2,60,0.1,89.9c-0.1,24.1,6.3,46.2,19.3,66.3c2.7,4.2,4,8.4,3.9,13.3c-0.1,19-0.1,38,0,57c0,4.6-0.1,8.4-5.7,10.3
		C102.9,443.9,70.1,455.1,35.6,466.7z"/>
	<path class="st0" d="M531.6,707.3c-47.9,0-95.7,0-143.6,0c-19.1,0-26.2-7.5-25.8-26.8c1.7-74.9,58-143.1,131.9-159.4
		c16.6-3.7,16.6-3.7,17.3-21.6c0.5-13.4,7.6-21.9,19-22.7c13-1,21.8,7.9,22.4,22.5c0.8,18,0.8,18,18.2,21.9
		c73.9,16.7,130.5,86.3,131,161.3c0.1,17-7.4,24.8-24.6,24.8C628.8,707.3,580.2,707.3,531.6,707.3z"/>
	<path class="st0" d="M159.2,249.7c0-5.8,0.9-11.9-0.2-17.5c-4.3-22.9,7.1-36.5,23.3-51.5c18.7-17.4,34.3-20.7,57.1-8.9
		c24.2,12.5,50.4,21.1,75.9,30.9c6.7,2.6,8.5,6.1,8.4,12.9c-0.4,23,0,46-0.2,69c-0.4,47.5-36.9,84.6-82.5,84.3
		c-45.5-0.4-81.2-37-81.7-84C159.1,273.1,159.2,261.4,159.2,249.7z"/>
	<path class="st0" d="M225,609.8c32.9,0,65.8,0.2,98.6-0.1c8.2-0.1,12,0.3,8.3,10.5c-9.1,25.3-12.1,51.8-11.1,78.7
		c0.3,6.5-1.3,8.6-8.3,8.6c-63.9-0.3-127.8-0.3-191.8,0c-6.9,0-8.5-2.1-8.4-8.7c0.4-26.7,0.4-53.3,0-80c-0.1-7.6,2.7-9.1,9.5-9.1
		C156.3,610,190.7,609.8,225,609.8z"/>
	<path class="st0" d="M0.2,624.9c0-24.1-0.1-48.2,0-72.4c0.1-18.2,11.6-34.4,28.5-40.1c20.7-7,41.6-13.7,62.2-21.1
		c8.1-2.9,10-0.9,9.8,7.3c-0.4,20.5-0.4,40.9,0,61.4c0.1,6.5-1.5,8.8-8.4,9.1c-13.8,0.8-20.4,8.7-20.5,23.2
		c-0.1,34.7-0.3,69.4,0.1,104.2c0.1,8-1.2,11.6-10.5,11.1c-17.5-0.9-35.1-0.7-52.6-0.1c-7.4,0.3-8.9-2.2-8.8-9.1
		C0.4,673.9,0.2,649.4,0.2,624.9z"/>
	<path class="st0" d="M241.7,568.8c-29.9,0-59.9-0.3-89.8,0.2c-7.8,0.1-10.9-1.4-10.7-10.1c0.6-25.2,0.2-50.4,0.2-75.5
		c0-4.3-1-8.9,4.9-10.6c5.2-1.5,9.4-3.1,14.9,1.5c52.6,44,108.4,44.1,160.3,0.2c5.3-4.5,9.4-3.6,14.8-1.9c6.4,2,5.3,6.9,5.3,11.5
		c0,24.8-0.3,49.6,0.2,74.4c0.2,8.1-1.9,10.7-10.3,10.5C301.6,568.5,271.7,568.8,241.7,568.8z"/>
	<path class="st0" d="M182.5,395.2c39.7,19.3,78.4,19,117.9,0c0,13.8-0.1,26.1,0,38.4c0,3.7-1.8,6-4.2,8.4
		c-30.8,31.3-79.1,31.3-109.6-0.1c-2.1-2.1-4.1-4.1-4.1-7.4C182.5,422,182.5,409.4,182.5,395.2z"/>
	<path class="st0" d="M382.4,537.7c0-16.4,0.1-29.7,0-43c-0.1-7.3,4.4-5.1,8.1-3.9c11.3,3.7,22.6,7.7,36.6,12.5
		C410.8,513.5,396.9,523.8,382.4,537.7z"/>
</g>
</svg>
