<?xml version="1.0" encoding="utf-8"?>
<!-- Generator: Adobe Illustrator 25.2.1, SVG Export Plug-In . SVG Version: 6.00 Build 0)  -->
<svg version="1.1" id="Camada_1" xmlns="http://www.w3.org/2000/svg" xmlns:xlink="http://www.w3.org/1999/xlink" x="0px" y="0px"
	 viewBox="0 0 172 45" style="enable-background:new 0 0 172 45;" xml:space="preserve">
<style type="text/css">
	.st0{fill:#FFFFFF;}
</style>
<path class="st0" d="M8.4,16.9V45C3.8,45,0,41.3,0,36.6V17.4C0,7.8,7.8,0,17.4,0v8.4H17C12.2,8.4,8.4,12.2,8.4,16.9z"/>
<path class="st0" d="M19,26.2c0,4.6,3.8,8.4,8.4,8.4H28V45c4.6,0,8.4-3.7,8.4-8.4V17.4C36.4,7.8,28.6,0,19,0v8.4h0.5
	c4.7,0,8.6,3.8,8.6,8.5v9.3H19z"/>
<path class="st0" d="M21,20.8c2,0,3.6-1.6,3.6-3.6c0-2-1.6-3.6-3.6-3.6c-2,0-3.6,1.6-3.6,3.6C17.4,19.2,19,20.8,21,20.8z"/>
<path class="st0" d="M63,24h-4.7v9.7h-2.9V24h-4.8V21H63V24z"/>
<path class="st0" d="M75.5,33.7c-2.3,0-4.8-2.9-6.2-2.9h-1.9v2.9h-2.9V21.1h5.5c4.4,0,6.7,2.4,6.7,4.9c0,2.5-1.9,3.8-2.7,4.1
	c0.4,0.6,2.3,1.1,2.9,0.4C78.5,31.1,77.8,33.7,75.5,33.7z M73.7,25.9c0-1.3-1.3-1.9-3.8-1.9h-2.5v3.9h2.5
	C72.3,27.9,73.7,27.2,73.7,25.9z"/>
<path class="st0" d="M91.6,33.7l-1.2-2.4h-6.8l-1.2,2.4h-3.3l6.1-12.6v0h3.5v0l6,12.6H91.6z M87.1,24.2l-2,4.2h4L87.1,24.2z"/>
<path class="st0" d="M111.3,33.6h-2.9v-7.1l-4.6,5.5l-4.4-5.4v7h-2.9V21h2.2l5.3,6.4l5.4-6.4h2.1V33.6z"/>
<path class="st0" d="M124.7,25.9c0,2.5-2.3,4.9-6.4,4.9h-2.9v2.9h-2.9V21.1h5.5C122.4,21.1,124.7,23.4,124.7,25.9z M121.8,25.9
	c0-1.2-1.3-1.9-3.8-1.9h-2.5v3.9h2.9C120.5,27.9,121.8,27.1,121.8,25.9z"/>
<path class="st0" d="M141.3,27.4c0,3.5-3.4,6.3-7.7,6.3c-4.2,0-7.7-2.8-7.7-6.3c0-3.5,3.4-6.3,7.7-6.3
	C137.9,21,141.3,23.9,141.3,27.4z M138.4,27.4c0-1.8-2.2-3.4-4.7-3.4s-4.7,1.5-4.7,3.4c0,1.8,2.2,3.4,4.7,3.4
	C136.2,30.7,138.4,29.2,138.4,27.4z"/>
<path class="st0" d="M152.5,27.3c0,1.6-0.6,3-1.7,4.1c-1.2,1.1-2.9,1.8-5.1,2c-0.7,0.1-1.4,0.1-1.9,0.1c-0.6,0-0.9,0-1,0l0.2-2.9
	c1.1,0.1,4.3,0,5.8-1.4c0.5-0.5,0.8-1.1,0.8-1.9V21h2.9V27.3z"/>
<path class="st0" d="M164.2,33.7l-1.2-2.4h-6.8l-1.2,2.4h-3.3l6.1-12.6v0h3.5v0l6,12.6H164.2z M159.6,24.2l-2,4.2h4L159.6,24.2z"/>
<path class="st0" d="M169,32.2c0-0.8,0.5-1.6,1.5-1.6c1,0,1.5,0.7,1.5,1.6c0,0.8-0.7,1.6-1.5,1.6C169.7,33.8,169,33,169,32.2z
	 M169.1,21h2.9v8.2h-2.9V21z"/>
<path class="st0" d="M163,16.3l-2.5,3.3h-2.1l1.8-3.3H163z"/>
</svg>
